<?xml version="1.0" encoding="UTF-8" standalone="no"?>
<svg
   xmlns:dc="http://purl.org/dc/elements/1.1/"
   xmlns:cc="http://creativecommons.org/ns#"
   xmlns:rdf="http://www.w3.org/1999/02/22-rdf-syntax-ns#"
   xmlns:svg="http://www.w3.org/2000/svg"
   xmlns="http://www.w3.org/2000/svg"
   xmlns:sodipodi="http://sodipodi.sourceforge.net/DTD/sodipodi-0.dtd"
   xmlns:inkscape="http://www.inkscape.org/namespaces/inkscape"
   version="1.0"
   width="987.08966"
   height="279.8782"
   viewBox="0 0 740.31725 209.90865"
   preserveAspectRatio="xMidYMid meet"
   id="svg927"
   sodipodi:docname="logo.svg"
   inkscape:version="0.92.4 (5da689c313, 2019-01-14)">
  <metadata
     id="metadata933">
    <rdf:RDF>
      <cc:Work
         rdf:about="">
        <dc:format>image/svg+xml</dc:format>
        <dc:type
           rdf:resource="http://purl.org/dc/dcmitype/StillImage" />
        <dc:title></dc:title>
      </cc:Work>
    </rdf:RDF>
  </metadata>
  <defs
     id="defs931" />
  <sodipodi:namedview
     pagecolor="#ffffff"
     bordercolor="#666666"
     borderopacity="1"
     objecttolerance="10"
     gridtolerance="10"
     guidetolerance="10"
     inkscape:pageopacity="0"
     inkscape:pageshadow="2"
     inkscape:window-width="1920"
     inkscape:window-height="1001"
     id="namedview929"
     showgrid="false"
     inkscape:zoom="0.24793233"
     inkscape:cx="683.99769"
     inkscape:cy="504.46451"
     inkscape:window-x="-9"
     inkscape:window-y="-9"
     inkscape:window-maximized="1"
     inkscape:current-layer="svg927"
     units="in"
     fit-margin-top="1"
     fit-margin-left="1"
     fit-margin-bottom="1"
     fit-margin-right="1" />
  <g
     transform="matrix(0.01852746,0,0,-0.01636869,0.50687435,209.15866)"
     id="g925"
     style="fill:#00b1ff;fill-opacity:0.89895468;stroke:none">
    <path
       d="m 1704,12729 c -393,-28 -734,-301 -990,-793 -182,-351 -289,-742 -351,-1276 -21,-186 -29,-822 -14,-1062 56,-855 252,-1434 617,-1817 202,-213 381,-330 724,-476 283,-120 583,-285 766,-420 109,-81 280,-255 339,-345 284,-433 423,-1045 386,-1699 -23,-403 -83,-669 -207,-930 -157,-329 -364,-519 -642,-588 -48,-12 -109,-17 -212,-16 -124,0 -159,4 -245,27 -55,14 -140,46 -190,71 -426,212 -743,770 -899,1580 -44,229 -96,648 -96,771 0,38 -4,45 -29,59 -35,18 -29,37 -66,-205 C 491,4933 282,4044 55,3315 19,3198 10,3156 14,3126 c 4,-22 9,-43 12,-48 3,-5 42,27 86,72 197,202 347,239 601,151 45,-15 255,-116 467,-223 307,-156 414,-204 527,-242 231,-76 309,-90 518,-90 208,-1 272,12 432,89 453,220 847,888 1017,1726 157,772 134,1760 -58,2461 -103,376 -277,727 -483,980 -80,97 -249,259 -345,331 -127,95 -215,145 -620,351 -213,109 -427,224 -475,256 -307,205 -532,521 -637,897 -121,431 -125,979 -11,1420 116,446 359,778 633,863 364,113 701,-115 967,-655 134,-273 195,-518 300,-1215 21,-135 41,-249 45,-253 15,-16 89,317 240,1078 132,665 204,955 319,1296 34,103 37,119 24,131 -13,13 -25,4 -101,-71 -55,-54 -111,-99 -152,-121 -60,-32 -72,-35 -150,-35 -104,1 -177,27 -385,142 -442,242 -760,334 -1081,312 z"
       id="path875"
       style="fill:#00b1ff;fill-opacity:0.89895468"
       inkscape:connector-curvature="0" />
    <path
       d="m 28920,12701 c -174,-39 -315,-110 -459,-233 -475,-404 -856,-1380 -1030,-2638 -87,-626 -121,-1188 -121,-2005 0,-610 14,-987 56,-1465 134,-1549 522,-2757 1059,-3293 104,-105 193,-170 310,-227 163,-80 230,-95 425,-94 197,1 270,17 425,94 269,134 492,384 689,773 435,857 656,2185 656,3932 0,1722 -196,3034 -591,3958 -291,681 -633,1078 -1019,1187 -109,31 -288,36 -400,11 z m 294,-686 c 389,-69 661,-496 810,-1272 131,-679 196,-1690 196,-3058 0,-2305 -211,-3652 -650,-4148 -175,-197 -437,-243 -675,-119 -77,41 -183,135 -251,224 -323,419 -527,1322 -604,2663 -43,766 -43,2072 0,2895 97,1828 383,2697 926,2814 88,18 149,19 248,1 z"
       id="path877"
       style="fill:#00b1ff;fill-opacity:0.89895468"
       inkscape:connector-curvature="0" />
    <path
       d="m 29075,11656 c -344,-84 -575,-557 -699,-1427 -101,-709 -146,-1813 -126,-3080 22,-1378 101,-2215 261,-2786 108,-386 325,-748 507,-846 l 52,-28 v 30 c 0,25 -15,45 -78,108 -317,315 -503,949 -596,2043 -43,496 -56,847 -63,1645 -9,1082 18,1841 88,2515 99,963 298,1489 609,1612 78,31 221,31 305,0 202,-74 371,-279 511,-619 20,-48 37,-89 39,-91 2,-2 13,11 24,27 l 22,31 -37,107 c -199,578 -483,841 -819,759 z"
       id="path879"
       style="fill:#00b1ff;fill-opacity:0.89895468"
       inkscape:connector-curvature="0" />
    <path
       d="m 33281,12709 c -426,-76 -783,-445 -1059,-1094 -330,-778 -516,-1767 -572,-3048 -13,-305 -13,-1181 0,-1493 62,-1466 292,-2604 690,-3401 252,-505 533,-791 887,-900 81,-25 101,-27 258,-27 143,0 182,4 247,22 171,47 320,136 467,277 164,158 285,330 417,595 424,853 644,2180 644,3900 0,1792 -215,3153 -646,4084 -284,616 -598,961 -969,1067 -81,24 -280,33 -364,18 z m 310,-704 c 348,-91 596,-479 743,-1165 76,-356 135,-859 171,-1440 53,-877 59,-2281 15,-3105 -95,-1738 -354,-2673 -803,-2895 -80,-40 -94,-43 -184,-48 -123,-6 -191,8 -295,60 -104,52 -226,168 -310,292 -291,436 -474,1265 -552,2506 -52,812 -54,2122 -6,3015 93,1714 354,2574 841,2765 106,42 252,48 380,15 z"
       id="path881"
       style="fill:#00b1ff;fill-opacity:0.89895468"
       inkscape:connector-curvature="0" />
    <path
       d="m 33400,11655 c -74,-21 -101,-34 -166,-80 -296,-212 -484,-783 -578,-1760 -108,-1121 -111,-3099 -5,-4270 53,-594 138,-1067 244,-1350 81,-219 205,-444 312,-564 42,-49 153,-131 175,-131 4,0 8,14 8,31 0,24 -11,41 -57,82 -172,157 -326,468 -426,862 -118,462 -185,1025 -229,1925 -18,357 -18,2022 0,2400 57,1232 162,1900 364,2305 141,282 331,402 560,354 221,-46 413,-256 565,-616 25,-60 46,-109 48,-110 1,-2 11,10 23,26 l 22,30 -40,114 c -176,510 -414,770 -704,766 -39,0 -91,-7 -116,-14 z"
       id="path883"
       style="fill:#00b1ff;fill-opacity:0.89895468"
       inkscape:connector-curvature="0" />
    <path
       d="m 20770,12693 c -397,-30 -794,-199 -1170,-500 -109,-87 -328,-300 -437,-425 l -85,-98 34,-27 c 71,-59 194,-182 264,-266 l 74,-88 V 9431 7572 l -63,-11 c -80,-14 -152,-14 -273,0 -53,6 -97,9 -99,7 -2,-2 -15,-82 -29,-178 -14,-96 -41,-274 -60,-395 -19,-121 -36,-239 -39,-261 l -5,-42 37,25 c 20,14 94,53 164,88 125,62 262,105 336,105 h 31 v -199 -199 l -137,-73 c -115,-60 -222,-129 -315,-202 -15,-12 -15,-18 -1,-80 8,-37 18,-67 22,-65 3,2 44,28 91,59 86,58 276,161 318,174 l 22,6 V 5058 3785 l -230,-440 -229,-440 776,-3 c 427,-1 778,0 781,3 3,2 -86,203 -197,445 l -201,441 v 1684 1683 l 48,16 c 26,8 67,20 92,26 222,55 541,165 677,233 54,28 72,33 76,23 3,-8 15,-72 27,-142 11,-71 28,-162 37,-202 l 15,-74 -33,-29 c -157,-134 -374,-238 -646,-310 l -83,-21 V 5158 3639 l 256,-571 c 140,-314 258,-576 261,-584 4,-12 -126,-14 -849,-16 l -854,-3 25,-93 24,-92 h 924 923 l -13,33 c -8,17 -150,336 -316,707 l -301,676 v 1409 1410 l 98,35 c 193,69 417,197 545,311 32,28 59,50 61,48 6,-7 104,-525 155,-814 193,-1095 367,-2514 481,-3925 17,-206 34,-406 38,-443 l 7,-68 92,123 c 302,406 638,753 960,991 l 91,68 -55,97 c -527,929 -1120,2829 -1443,4622 -11,63 -22,124 -25,135 -3,17 10,29 68,63 601,355 1002,1081 1114,2019 25,209 25,719 0,923 -74,603 -272,1085 -601,1466 -224,259 -467,414 -768,488 -155,38 -322,52 -488,39 z m 205,-553 c 268,-68 491,-287 665,-652 153,-322 226,-662 245,-1138 12,-291 -22,-693 -81,-955 -145,-649 -452,-1084 -980,-1392 -92,-53 -294,-147 -361,-168 l -23,-6 v 1786 1786 l 54,24 c 90,40 165,56 291,62 146,7 253,-11 364,-63 174,-80 310,-221 513,-529 59,-88 97,-138 92,-120 -18,74 -70,210 -124,320 -111,230 -258,390 -434,475 -131,63 -219,83 -371,82 -167,0 -273,-20 -407,-79 l -58,-26 V 9689 7832 l -47,-16 c -27,-9 -74,-19 -105,-22 l -58,-7 v 2040 2040 l 73,70 c 162,154 331,220 563,222 80,1 132,-5 189,-19 z"
       id="path885"
       style="fill:#00b1ff;fill-opacity:0.89895468"
       inkscape:connector-curvature="0" />
    <path
       d="m 4383,12558 c 3,-7 125,-211 271,-453 l 266,-440 V 10053 8440 h -38 c -54,0 -147,-26 -206,-58 -75,-39 -204,-172 -259,-267 -92,-159 -172,-401 -222,-674 -14,-74 -25,-141 -25,-149 0,-8 25,25 56,74 74,118 95,145 178,233 133,138 259,203 401,205 123,2 115,16 115,-192 v -179 l -67,-22 c -204,-67 -396,-208 -508,-373 l -23,-34 21,-71 20,-70 106,107 c 58,59 140,129 181,156 74,48 219,114 253,114 16,0 17,-87 17,-1682 V 3875 l -270,-433 c -149,-238 -270,-435 -270,-437 0,-3 902,-5 2004,-5 h 2005 l -54,113 c -240,505 -394,948 -485,1392 -51,247 -139,821 -141,918 0,27 -2,29 -9,12 -5,-11 -43,-146 -85,-300 -209,-767 -257,-901 -399,-1120 -160,-245 -359,-362 -726,-424 -125,-22 -350,-41 -472,-41 h -78 v 1845 1845 h 390 389 l -43,93 -42,92 -387,3 -387,2 V 5490 3550 h -120 -120 v 2120 2120 l 496,-2 496,-3 219,-595 c 120,-327 221,-599 223,-605 3,-5 5,701 5,1570 v 1580 l -184,-530 c -102,-291 -203,-583 -226,-647 l -41,-118 h -334 -334 v 1440 c 0,1290 2,1440 15,1440 9,0 57,4 108,10 413,44 728,24 864,-56 78,-46 232,-247 412,-542 35,-57 65,-101 67,-99 7,7 -85,264 -132,370 -104,235 -221,379 -372,456 -162,83 -387,117 -666,100 -133,-7 -351,-34 -368,-45 -4,-3 -8,-696 -8,-1540 V 8440 h -120 -120 v 1739 1739 l 38,6 c 221,34 778,42 929,13 357,-66 515,-190 659,-516 88,-201 183,-524 264,-896 23,-104 44,-197 47,-205 3,-8 22,73 43,180 137,707 324,1377 534,1918 31,79 56,145 56,148 0,2 -858,4 -1906,4 -1521,0 -1905,-3 -1901,-12 z"
       id="path887"
       style="fill:#00b1ff;fill-opacity:0.89895468"
       inkscape:connector-curvature="0" />
    <path
       d="m 9181,12146 189,-426 V 7696 3672 l -239,-383 -238,-384 841,-3 c 871,-3 968,0 1157,38 425,86 715,296 996,719 311,467 533,1150 658,2024 95,666 129,1231 129,2152 1,621 -6,816 -40,1240 -97,1209 -356,2149 -756,2747 -239,358 -556,584 -966,688 -208,52 -210,52 -1094,57 l -826,4 z m 1384,-230 c 252,-58 433,-156 591,-319 98,-101 155,-180 227,-317 284,-538 444,-1379 497,-2615 14,-309 14,-1284 0,-1620 -56,-1407 -232,-2363 -553,-2989 -108,-211 -253,-394 -369,-463 -112,-68 -282,-111 -476,-120 l -122,-6 2,3904 3,3904 70,12 c 300,52 614,-40 869,-254 43,-35 80,-63 82,-60 2,2 -20,42 -50,90 -191,304 -354,411 -661,432 -96,7 -244,-10 -342,-40 l -53,-16 V 7455 3470 h -105 -105 v 4236 4236 l 213,-5 c 140,-4 236,-11 282,-21 z"
       id="path889"
       style="fill:#00b1ff;fill-opacity:0.89895468"
       inkscape:connector-curvature="0" />
    <path
       d="m 15040,12483 c 21,-49 106,-241 189,-428 l 151,-340 -241,-1390 c -132,-764 -243,-1401 -248,-1414 -6,-22 -13,-14 -61,75 -112,208 -291,494 -308,494 -5,0 -19,-33 -31,-73 l -23,-73 54,-90 c 30,-49 115,-197 188,-329 l 133,-240 -31,-163 c -28,-152 -36,-182 -45,-171 -34,42 -154,256 -267,478 l -145,281 -8,-52 c -39,-256 -154,-756 -241,-1047 -25,-85 -46,-158 -46,-163 0,-4 26,-15 58,-24 105,-30 227,-101 312,-181 85,-80 170,-196 170,-233 0,-12 -20,-153 -45,-314 -238,-1524 -457,-2482 -715,-3116 -149,-368 -379,-758 -588,-998 l -63,-72 h 886 c 487,0 885,1 885,3 0,2 -29,67 -65,145 -172,380 -270,662 -309,892 -54,315 -46,839 19,1320 51,372 255,1661 274,1725 l 8,30 11,-25 c 5,-14 42,-94 81,-178 l 70,-154 -44,-231 c -204,-1078 -282,-1835 -245,-2379 29,-416 104,-710 340,-1322 50,-128 90,-238 90,-244 0,-9 -229,-12 -911,-12 -725,0 -910,-3 -907,-12 3,-7 18,-50 34,-95 l 29,-83 h 963 c 529,0 962,4 962,8 0,5 -46,130 -101,278 -265,705 -347,971 -384,1256 -80,602 -15,1398 201,2458 44,217 44,217 54,199 39,-71 384,-1087 495,-1459 37,-124 71,-228 74,-233 4,-4 18,30 31,75 81,286 259,769 391,1063 102,227 272,555 289,555 11,0 72,-320 66,-346 -4,-13 -52,-126 -107,-252 -218,-490 -424,-1035 -532,-1408 l -15,-51 35,-17 c 20,-9 37,-15 39,-14 1,2 26,79 54,172 121,399 315,896 526,1351 23,50 29,56 35,40 5,-11 97,-508 205,-1105 l 196,-1085 -244,-430 -243,-430 441,-3 c 244,-1 646,-1 894,0 l 451,3 -265,430 -264,430 -321,1830 c -177,1007 -324,1843 -327,1858 -5,24 3,36 58,90 118,116 262,163 470,155 110,-5 118,-4 113,13 -90,283 -229,1012 -271,1423 l -7,70 -25,-50 c -33,-65 -247,-444 -266,-469 -14,-20 -14,-20 -20,5 -14,59 -496,2771 -496,2790 0,11 80,216 179,456 l 178,434 -41,35 c -22,19 -44,31 -47,27 -14,-16 -371,-888 -371,-907 0,-11 117,-676 261,-1478 144,-801 261,-1466 261,-1478 0,-12 -30,-56 -67,-99 -64,-74 -83,-90 -83,-72 0,4 -132,745 -294,1647 l -294,1640 184,438 c 101,241 184,440 184,443 0,2 -369,4 -819,4 h -820 z m 618,-1758 49,-280 -230,-1272 -229,-1273 90,-193 c 183,-389 313,-721 462,-1183 l 33,-100 -53,-135 c -65,-165 -75,-186 -84,-170 -4,6 -50,134 -101,284 -206,602 -348,967 -529,1361 -20,43 -36,88 -36,100 0,25 559,3134 567,3156 8,20 4,38 61,-295 z m 357,-1968 246,-1388 -39,-72 c -59,-108 -183,-374 -252,-543 -33,-82 -66,-160 -71,-174 -9,-21 -23,13 -108,270 -54,162 -122,358 -151,435 -43,115 -208,514 -265,641 -12,29 1,110 180,1105 203,1120 203,1124 210,1117 2,-2 115,-628 250,-1391 z"
       id="path891"
       style="fill:#00b1ff;fill-opacity:0.89895468"
       inkscape:connector-curvature="0" />
    <path
       d="m 36637,11298 c -3,-800 -8,-1140 -16,-1183 -26,-134 -55,-184 -95,-169 -9,3 -29,29 -45,58 -67,117 -134,142 -197,74 -18,-20 -40,-60 -49,-90 -22,-69 -31,-266 -16,-338 24,-116 91,-217 166,-251 186,-85 320,123 384,598 34,247 42,390 48,841 l 6,432 h 1193 1194 l -6,-47 c -9,-81 -44,-284 -54,-325 l -11,-38 h -1049 -1050 v -257 c 0,-343 -16,-734 -35,-890 -55,-446 -174,-664 -373,-681 -44,-4 -63,0 -116,27 -53,26 -75,31 -135,31 h -72 l 20,-28 c 92,-129 190,-192 300,-192 254,0 404,295 467,917 8,82 17,313 21,521 l 6,372 h 989 990 l -7,-42 c -14,-79 -132,-541 -180,-703 -26,-88 -169,-506 -317,-930 -310,-884 -415,-1198 -534,-1589 -234,-775 -412,-1515 -523,-2181 -105,-633 -190,-1483 -216,-2167 l -7,-168 h 480 479 l -5,387 c -13,1106 69,2336 224,3348 95,617 161,920 454,2090 306,1216 358,1445 460,2005 94,524 174,1154 196,1568 l 7,122 h -1486 -1486 z"
       id="path893"
       style="fill:#00b1ff;fill-opacity:0.89895468"
       inkscape:connector-curvature="0" />
    <path
       d="m 30090,12379 c 0,-12 24,-53 53,-93 232,-310 399,-644 553,-1103 237,-707 368,-1556 426,-2748 25,-530 14,-1639 -23,-2180 -81,-1206 -271,-2133 -581,-2835 -293,-665 -686,-1039 -1160,-1105 -99,-13 -264,-7 -353,15 -307,72 -611,334 -875,755 -77,123 -76,122 -89,97 -10,-18 0,-41 65,-154 193,-336 407,-607 570,-724 81,-58 211,-119 309,-145 161,-43 412,-37 575,13 526,162 984,805 1274,1788 280,951 408,2205 393,3840 -6,588 -11,728 -42,1145 -100,1303 -383,2429 -770,3055 -92,148 -292,400 -318,400 -4,0 -7,-10 -7,-21 z"
       id="path895"
       style="fill:#00b1ff;fill-opacity:0.89895468"
       inkscape:connector-curvature="0" />
    <path
       d="m 34420,12381 c 0,-13 28,-61 64,-110 479,-646 773,-1606 905,-2951 94,-955 104,-2226 26,-3250 -113,-1466 -420,-2578 -885,-3205 -235,-317 -524,-505 -842,-550 -99,-13 -264,-7 -353,15 -313,74 -623,344 -887,772 -33,54 -62,98 -64,98 -2,0 -8,-9 -14,-20 -9,-16 -2,-34 36,-102 269,-474 489,-730 731,-852 40,-20 112,-48 160,-63 81,-25 102,-27 273,-27 161,-1 195,2 265,21 393,107 713,415 994,954 490,942 731,2421 731,4489 0,1195 -88,2109 -287,2975 -186,815 -473,1455 -792,1770 -54,52 -61,57 -61,36 z"
       id="path897"
       style="fill:#00b1ff;fill-opacity:0.89895468"
       inkscape:connector-curvature="0" />
    <path
       d="M 3630,11878 C 3375,10839 3278,10431 3176,9970 l -25,-115 36,-33 c 20,-18 40,-29 45,-24 9,9 48,172 228,962 146,639 191,824 286,1174 l 65,239 -37,38 c -21,22 -41,39 -45,39 -4,0 -49,-168 -99,-372 z"
       id="path899"
       style="fill:#00b1ff;fill-opacity:0.89895468"
       inkscape:connector-curvature="0" />
    <path
       d="m 8307,12148 c -8,-20 -54,-144 -101,-276 -179,-502 -357,-1140 -482,-1729 -17,-81 -17,-82 6,-142 12,-34 25,-61 29,-61 3,0 19,65 34,144 76,389 225,922 428,1530 l 146,440 -22,65 -22,66 z"
       id="path901"
       style="fill:#00b1ff;fill-opacity:0.89895468"
       inkscape:connector-curvature="0" />
    <path
       d="m 39820,12106 c 0,-8 -9,-124 -20,-258 -67,-796 -191,-1561 -380,-2343 -27,-110 -139,-542 -250,-960 -220,-828 -276,-1054 -344,-1395 -170,-849 -269,-1769 -307,-2860 -11,-331 -6,-1525 7,-1727 l 6,-93 h -531 c -292,0 -531,-3 -531,-7 0,-5 10,-47 22,-95 l 23,-88 h 564 564 l -7,128 c -39,763 -37,1817 4,2522 60,1010 188,1903 385,2692 26,101 124,478 220,838 301,1134 375,1457 480,2095 83,502 165,1247 165,1503 v 62 h -35 c -24,0 -35,-5 -35,-14 z"
       id="path903"
       style="fill:#00b1ff;fill-opacity:0.89895468"
       inkscape:connector-curvature="0" />
    <path
       d="m 1830,11740 c -317,-55 -549,-423 -621,-985 -20,-150 -17,-532 5,-679 41,-283 121,-504 254,-705 61,-92 179,-224 193,-215 18,10 8,36 -47,127 -249,411 -358,841 -325,1277 31,397 150,708 337,879 66,60 111,85 191,106 296,77 598,-162 866,-685 41,-80 77,-152 79,-160 4,-11 9,-12 17,-4 8,7 2,43 -23,135 -79,288 -176,484 -324,656 -165,191 -396,289 -602,253 z"
       id="path905"
       style="fill:#00b1ff;fill-opacity:0.89895468"
       inkscape:connector-curvature="0" />
    <path
       d="m 22625,11620 c 97,-310 179,-691 221,-1030 26,-204 26,-787 0,-1005 -71,-607 -218,-1061 -477,-1473 -146,-232 -351,-465 -561,-637 l -37,-30 15,-80 c 375,-2046 901,-3581 1567,-4574 63,-95 68,-106 52,-115 -75,-45 -296,-195 -370,-251 -341,-259 -679,-607 -990,-1015 l -85,-113 22,-36 c 47,-78 36,-81 129,37 221,282 545,627 779,828 191,165 447,350 633,459 37,21 67,42 67,46 0,3 -26,42 -57,85 -320,445 -604,974 -830,1549 -352,892 -629,1907 -783,2868 l -32,198 139,137 c 525,520 799,1140 895,2027 20,185 17,818 -5,1015 -45,403 -124,734 -243,1018 -43,102 -65,144 -49,92 z"
       id="path907"
       style="fill:#00b1ff;fill-opacity:0.89895468"
       inkscape:connector-curvature="0" />
    <path
       d="m 12283,11518 c 3,-7 53,-124 111,-260 58,-137 129,-315 156,-397 173,-517 287,-1194 340,-2016 41,-642 41,-1633 0,-2280 -91,-1421 -351,-2473 -781,-3163 -304,-488 -638,-743 -1132,-862 -253,-61 -279,-63 -1138,-69 l -785,-6 25,-93 24,-93 786,4 c 860,4 840,3 1101,68 239,59 484,173 675,313 110,81 307,280 397,402 267,361 510,962 661,1639 151,672 232,1377 268,2310 15,400 6,1446 -15,1770 -75,1120 -237,1889 -518,2449 -59,118 -164,296 -175,296 -3,0 -3,-6 0,-12 z"
       id="path909"
       style="fill:#00b1ff;fill-opacity:0.89895468"
       inkscape:connector-curvature="0" />
    <path
       d="M 7230,7954 V 6294 l 40,-39 40,-39 v 1660 1660 l -40,39 -40,39 z"
       id="path911"
       style="fill:#00b1ff;fill-opacity:0.89895468"
       inkscape:connector-curvature="0" />
    <path
       d="m 17615,8943 c 44,-317 61,-424 91,-586 49,-272 106,-529 185,-847 37,-151 66,-276 64,-278 -2,-2 -56,9 -122,24 -103,25 -138,28 -283,28 -150,1 -170,-1 -225,-23 -33,-13 -63,-26 -67,-30 -4,-4 136,-804 312,-1780 l 319,-1772 324,-602 325,-602 -955,-3 c -757,-2 -954,-5 -951,-15 3,-6 17,-49 32,-94 l 28,-83 h 1034 1035 l -12,23 c -6,12 -185,344 -397,737 l -386,715 -298,1660 c -164,913 -298,1668 -298,1679 0,17 7,18 113,13 92,-4 373,-48 586,-93 32,-7 34,-6 28,17 -147,538 -305,1258 -362,1653 l -26,177 -46,59 c -25,33 -48,60 -50,60 -2,0 -1,-17 2,-37 z"
       id="path913"
       style="fill:#00b1ff;fill-opacity:0.89895468"
       inkscape:connector-curvature="0" />
    <path
       d="m 596,7898 c 44,-256 102,-417 205,-570 153,-225 430,-416 1089,-751 731,-372 864,-484 1066,-901 39,-80 70,-134 76,-128 16,16 -47,264 -102,397 -92,220 -226,367 -505,552 -147,98 -310,189 -711,398 -208,109 -408,216 -444,238 -278,167 -465,374 -544,602 -15,40 -43,88 -76,129 -29,36 -55,66 -56,66 -2,0 -1,-15 2,-32 z"
       id="path915"
       style="fill:#00b1ff;fill-opacity:0.89895468"
       inkscape:connector-curvature="0" />
    <path
       d="m 3600,7643 c 0,-6 15,-47 34,-91 260,-606 384,-1400 348,-2210 -19,-412 -56,-708 -131,-1042 -150,-673 -450,-1283 -800,-1630 -318,-316 -667,-417 -1116,-324 -162,33 -271,78 -655,270 -380,190 -480,232 -609,260 -99,21 -220,18 -293,-7 -67,-22 -179,-91 -217,-133 l -24,-26 18,-99 18,-99 61,46 c 125,96 250,131 410,113 179,-21 250,-51 821,-347 307,-159 489,-208 780,-208 143,0 184,3 258,22 420,105 765,432 1063,1007 340,655 514,1468 514,2400 0,796 -137,1474 -396,1964 -60,113 -84,152 -84,134 z"
       id="path917"
       style="fill:#00b1ff;fill-opacity:0.89895468"
       inkscape:connector-curvature="0" />
    <path
       d="m 983,5477 c -18,-7 -33,-15 -34,-20 -4,-19 14,-188 37,-347 109,-756 338,-1269 684,-1532 59,-45 65,-48 68,-29 2,14 -21,49 -73,108 -79,92 -176,232 -237,343 -173,315 -308,784 -372,1295 -23,176 -26,195 -34,194 -4,0 -22,-6 -39,-12 z"
       id="path919"
       style="fill:#00b1ff;fill-opacity:0.89895468"
       inkscape:connector-curvature="0" />
    <path
       d="m 7974,5058 c 3,-12 22,-97 41,-188 133,-619 358,-1266 626,-1802 l 58,-116 -61,-241 -62,-241 -1966,-2 -1966,-3 25,-93 26,-92 h 1960 1961 l 92,335 92,334 -91,192 c -285,605 -497,1213 -610,1749 -23,110 -27,117 -102,172 l -28,20 z"
       id="path921"
       style="fill:#00b1ff;fill-opacity:0.89895468"
       inkscape:connector-curvature="0" />
    <path
       d="M 23550,440 V 0 h 1715 1715 v 440 440 h -1715 -1715 z"
       id="path923"
       style="fill:#00b1ff;fill-opacity:0.89895468"
       inkscape:connector-curvature="0" />
  </g>
</svg>
